<svg xmlns="http://www.w3.org/2000/svg">
  <symbol id="icon-menu" viewBox="0 0 24 24"><path d="M4 7h16M4 12h16M4 17h16"/></symbol>
  <symbol id="icon-more" viewBox="0 0 24 24"><circle cx="12" cy="5" r="1.4" fill="currentColor" stroke="none"/><circle cx="12" cy="12" r="1.4" fill="currentColor" stroke="none"/><circle cx="12" cy="19" r="1.4" fill="currentColor" stroke="none"/></symbol>
  <symbol id="icon-tools" viewBox="0 0 24 24"><path d="M4 7h16a2 2 0 0 1 2 2v9a2 2 0 0 1-2 2H4a2 2 0 0 1-2-2V9a2 2 0 0 1 2-2Z"/><path d="M9 7V5a2 2 0 0 1 2-2h2a2 2 0 0 1 2 2v2M2 12h20M10 12v2h4v-2"/></symbol>
  <symbol id="icon-settings" viewBox="0 0 24 24"><circle cx="12" cy="12" r="3"/><path d="M19.4 15a1.7 1.7 0 0 0 .3 1.9l.1.1-2.8 2.8-.1-.1a1.7 1.7 0 0 0-1.9-.3 1.7 1.7 0 0 0-1 1.6v.2h-4V21a1.7 1.7 0 0 0-1-1.6 1.7 1.7 0 0 0-1.9.3l-.1.1L4.2 17l.1-.1a1.7 1.7 0 0 0 .3-1.9A1.7 1.7 0 0 0 3 14H2.8v-4H3a1.7 1.7 0 0 0 1.6-1 1.7 1.7 0 0 0-.3-1.9L4.2 7 7 4.2l.1.1A1.7 1.7 0 0 0 9 4.6 1.7 1.7 0 0 0 10 3V2.8h4V3a1.7 1.7 0 0 0 1 1.6 1.7 1.7 0 0 0 1.9-.3l.1-.1L19.8 7l-.1.1a1.7 1.7 0 0 0-.3 1.9 1.7 1.7 0 0 0 1.6 1h.2v4H21a1.7 1.7 0 0 0-1.6 1Z"/></symbol>
  <symbol id="icon-history" viewBox="0 0 24 24"><path d="M3 12a9 9 0 1 0 3-6.7L3 8"/><path d="M3 3v5h5m4-2v6l4 2"/></symbol>
  <symbol id="icon-search" viewBox="0 0 24 24"><circle cx="11" cy="11" r="7"/><path d="m20 20-4-4"/></symbol>
  <symbol id="icon-close" viewBox="0 0 24 24"><path d="m6 6 12 12M18 6 6 18"/></symbol>
  <symbol id="icon-backspace" viewBox="0 0 24 24"><path d="M21 5H9l-6 7 6 7h12V5Z"/><path d="m11 9 6 6m0-6-6 6"/></symbol>
  <symbol id="icon-copy" viewBox="0 0 24 24"><rect x="8" y="8" width="11" height="11" rx="2"/><path d="M16 8V5a2 2 0 0 0-2-2H5a2 2 0 0 0-2 2v9a2 2 0 0 0 2 2h3"/></symbol>
  <symbol id="icon-swap" viewBox="0 0 24 24"><path d="M7 7h13l-3-3m3 3-3 3M17 17H4l3 3m-3-3 3-3"/></symbol>
  <symbol id="icon-sun" viewBox="0 0 24 24"><circle cx="12" cy="12" r="4"/><path d="M12 2v2m0 16v2M4.9 4.9l1.4 1.4m11.4 11.4 1.4 1.4M2 12h2m16 0h2M4.9 19.1l1.4-1.4M17.7 6.3l1.4-1.4"/></symbol>
  <symbol id="icon-moon" viewBox="0 0 24 24"><path d="M20.7 15.2A8.5 8.5 0 0 1 8.8 3.3a8.5 8.5 0 1 0 11.9 11.9Z"/></symbol>
  <symbol id="icon-calculator" viewBox="0 0 24 24"><rect x="4" y="2" width="16" height="20" rx="3"/><path d="M8 6h8M8 11h.01M12 11h.01M16 11h.01M8 15h.01M12 15h.01M16 15h.01M8 19h.01M12 19h4"/></symbol>
  <symbol id="icon-ruler" viewBox="0 0 24 24"><path d="m4 17 13-13 3 3L7 20l-3-3Z"/><path d="m12 9 3 3m-6 0 2 2m-5 1 2 2"/></symbol>
  <symbol id="icon-wallet" viewBox="0 0 24 24"><path d="M4 6h14a2 2 0 0 1 2 2v10a2 2 0 0 1-2 2H4a2 2 0 0 1-2-2V6a3 3 0 0 1 3-3h12v3"/><path d="M15 11h6v4h-6a2 2 0 0 1 0-4Z"/></symbol>
  <symbol id="icon-heart" viewBox="0 0 24 24"><path d="M20.8 4.6a5.5 5.5 0 0 0-7.8 0L12 5.7l-1.1-1.1a5.5 5.5 0 0 0-7.8 7.8L12 21l8.8-8.6a5.5 5.5 0 0 0 0-7.8Z"/></symbol>
  <symbol id="icon-flask" viewBox="0 0 24 24"><path d="M9 3h6m-5 0v6l-5 9a2 2 0 0 0 1.8 3h10.4a2 2 0 0 0 1.8-3l-5-9V3"/><path d="M7.5 15h9"/></symbol>
  <symbol id="icon-atom" viewBox="0 0 24 24"><circle cx="12" cy="12" r="1.7" fill="currentColor" stroke="none"/><ellipse cx="12" cy="12" rx="10" ry="4.2"/><ellipse cx="12" cy="12" rx="10" ry="4.2" transform="rotate(60 12 12)"/><ellipse cx="12" cy="12" rx="10" ry="4.2" transform="rotate(120 12 12)"/></symbol>
  <symbol id="icon-rocket" viewBox="0 0 24 24"><path d="M14 4.2c2.4-1.5 4.7-1.7 6-1.6.1 1.4-.1 3.7-1.6 6.1l-5.8 8.5-5.8-5.8L14 4.2Z"/><circle cx="15.5" cy="7.2" r="1.7"/><path d="m8.8 9.4-4.2.8-2 2 5.2.7m6.8 2.3-.8 4.2-2 2-.7-5.2M7 17l-3 3m4-1-2 2"/></symbol>
  <symbol id="icon-geometry" viewBox="0 0 24 24"><path d="M12 3 2.5 20h19L12 3Z"/><circle cx="12" cy="14" r="3"/></symbol>
  <symbol id="icon-clock" viewBox="0 0 24 24"><circle cx="12" cy="12" r="9"/><path d="M12 7v5l3 2"/></symbol>
  <symbol id="icon-code" viewBox="0 0 24 24"><path d="m8 9-4 3 4 3m8-6 4 3-4 3m-2-9-4 12"/></symbol>
  <symbol id="icon-home" viewBox="0 0 24 24"><path d="m3 11 9-8 9 8v9a1 1 0 0 1-1 1h-5v-6H9v6H4a1 1 0 0 1-1-1v-9Z"/></symbol>
  <symbol id="icon-keyboard" viewBox="0 0 24 24"><rect x="2" y="5" width="20" height="14" rx="2"/><path d="M6 9h.01M10 9h.01M14 9h.01M18 9h.01M6 13h.01M10 13h.01M14 13h.01M18 13h.01M7 16h10"/></symbol>
  <symbol id="icon-info" viewBox="0 0 24 24"><circle cx="12" cy="12" r="9"/><path d="M12 11v6m0-10h.01"/></symbol>
  <symbol id="icon-chevron" viewBox="0 0 24 24"><path d="m9 18 6-6-6-6"/></symbol>
  <symbol id="icon-sparkles" viewBox="0 0 24 24"><path d="m12 3 1.3 4.2L17.5 8l-4.2 1.3L12 13.5l-1.3-4.2L6.5 8l4.2-.8L12 3Zm6 10 .8 2.2L21 16l-2.2.8L18 19l-.8-2.2L15 16l2.2-.8L18 13ZM5 14l1 3 3 1-3 1-1 3-1-3-3-1 3-1 1-3Z"/></symbol>
  <symbol id="icon-trash" viewBox="0 0 24 24"><path d="M4 7h16m-10-3h4l1 3H9l1-3Zm-3 3 1 14h8l1-14M10 11v6m4-6v6"/></symbol>
  <symbol id="icon-check" viewBox="0 0 24 24"><path d="m5 12 4 4L19 6"/></symbol>
  <symbol id="icon-arrow-left" viewBox="0 0 24 24"><path d="m15 18-6-6 6-6"/></symbol>
  <symbol id="icon-bookmark" viewBox="0 0 24 24"><path d="M6 3h12v18l-6-4-6 4V3Z"/></symbol>
  <symbol id="icon-folder" viewBox="0 0 24 24"><path d="M3 6.5A2.5 2.5 0 0 1 5.5 4H10l2 2h6.5A2.5 2.5 0 0 1 21 8.5v8A2.5 2.5 0 0 1 18.5 19h-13A2.5 2.5 0 0 1 3 16.5v-10Z"/></symbol>
  <symbol id="icon-book" viewBox="0 0 24 24"><path d="M4 4.5A2.5 2.5 0 0 1 6.5 2H11a3 3 0 0 1 3 3v16a3 3 0 0 0-3-3H6.5A2.5 2.5 0 0 0 4 20.5v-16Z"/><path d="M20 4.5A2.5 2.5 0 0 0 17.5 2H14v19a3 3 0 0 1 3-3h.5a2.5 2.5 0 0 1 2.5 2.5v-16Z"/></symbol>
  <symbol id="icon-utensils" viewBox="0 0 24 24"><path d="M7 2v7m-3-7v5a3 3 0 0 0 6 0V2M7 10v12"/><path d="M17 2c-2 2-3 4.5-3 7.5a3 3 0 0 0 3 3V22m0-20v10.5"/></symbol>
  <symbol id="icon-shoe" viewBox="0 0 24 24"><path d="M3 14c4.5.2 7.2-1.4 8.8-5.2l2.8 2.1c1.7 1.3 3.7 2.1 5.8 2.4l.6.1V18H3v-4Z"/><path d="M4 18v2h17v-2M12 11l2 2m1-1 1.7 1.5"/></symbol>
  <symbol id="icon-shirt" viewBox="0 0 24 24"><path d="m8 4-5 3 2 5 3-1v10h8V11l3 1 2-5-5-3a4 4 0 0 1-8 0Z"/></symbol>
  <symbol id="icon-ring" viewBox="0 0 24 24"><circle cx="12" cy="14" r="7"/><path d="m8 6 2-3h4l2 3-4 3-4-3Z"/></symbol>
  <symbol id="icon-paper" viewBox="0 0 24 24"><path d="M6 2h8l4 4v16H6V2Z"/><path d="M14 2v5h4M9 12h6m-6 4h6"/></symbol>
  <symbol id="icon-fuel" viewBox="0 0 24 24"><path d="M5 3h10v18H5V3Z"/><path d="M7 6h6v5H7V6Zm8 1h2l2 3v8a2 2 0 0 0 2 2V9l-2-2"/></symbol>
  <symbol id="icon-map" viewBox="0 0 24 24"><path d="m3 6 6-3 6 3 6-3v15l-6 3-6-3-6 3V6Z"/><path d="M9 3v15m6-12v15"/></symbol>
  <symbol id="icon-coordinates" viewBox="0 0 24 24"><circle cx="12" cy="12" r="8"/><path d="M2 12h20M12 2v20m-5-5 10-10"/></symbol>
  <symbol id="icon-compass" viewBox="0 0 24 24"><circle cx="12" cy="12" r="9"/><path d="m15.5 8.5-2 5-5 2 2-5 5-2Z"/><path d="M12 1v2m0 18v2M1 12h2m18 0h2"/></symbol>
  <symbol id="icon-precipitation" viewBox="0 0 24 24"><path d="M7 15a4 4 0 1 1 1-7.9A5.5 5.5 0 0 1 18.5 9 3 3 0 0 1 18 15H7Z"/><path d="m8 18-1 3m5-3-1 3m5-3-1 3"/></symbol>
  <symbol id="icon-globe-clock" viewBox="0 0 24 24"><circle cx="10" cy="10" r="8"/><path d="M2 10h16M10 2c2 2.2 3 4.9 3 8m-6 0c0-3.1 1-5.8 3-8"/><circle cx="17" cy="17" r="5"/><path d="M17 14v3l2 1"/></symbol>
  <symbol id="icon-coil" viewBox="0 0 24 24"><path d="M2 12h3m14 0h3M5 12c0-4 3-4 3 0s3 4 3 0 3-4 3 0 3 4 3 0 2-4 2 0"/></symbol>
  <symbol id="icon-conductivity" viewBox="0 0 24 24"><path d="M4 5h7l-2 4h6l-6 10 2-7H5l4-7H4Z"/><path d="M17 5h3m-3 14h3"/></symbol>
  <symbol id="icon-luminous-flux" viewBox="0 0 24 24"><path d="M9 18h6m-5 3h4M8 14a6 6 0 1 1 8 0c-1.2.9-1 2-1 2H9s.2-1.1-1-2Z"/><path d="M12 1v2M3 5l2 1m16-1-2 1M2 12h2m16 0h2"/></symbol>
  <symbol id="icon-luminance" viewBox="0 0 24 24"><circle cx="12" cy="12" r="4"/><path d="M12 2v3m0 14v3M2 12h3m14 0h3M5 5l2 2m10 10 2 2M19 5l-2 2M7 17l-2 2"/></symbol>
  <symbol id="icon-thermal-conductivity" viewBox="0 0 24 24"><path d="M9 4v10a4 4 0 1 0 6 0V4a3 3 0 0 0-6 0Z"/><path d="M12 7v10m5-10h4m-4 4h3"/></symbol>
  <symbol id="icon-heat-capacity" viewBox="0 0 24 24"><path d="M12 22c4 0 7-3 7-7 0-4-3-7-2-12-4 2-7 6-6 10-2-1-3-3-3-4-2 2-3 4-3 7 0 3 3 6 7 6Z"/><path d="M12 21c-2-2-1-5 1-7 1 3 3 4 2 7"/></symbol>
  <symbol id="icon-surface-tension" viewBox="0 0 24 24"><path d="M3 16c3-2 6-2 9 0s6 2 9 0M3 20h18"/><path d="M12 3c3 4 4 6 4 8a4 4 0 0 1-8 0c0-2 1-4 4-8Z"/></symbol>
  <symbol id="icon-mass-flow" viewBox="0 0 24 24"><path d="M3 7h12m-4-4 4 4-4 4M21 17H9m4-4-4 4 4 4"/><circle cx="5" cy="17" r="2"/></symbol>
  <symbol id="icon-angular-velocity" viewBox="0 0 24 24"><path d="M19 8a8 8 0 1 0 1 8M19 3v5h-5"/><circle cx="12" cy="12" r="2"/><path d="m12 12 4-3"/></symbol>
  <symbol id="icon-concentration" viewBox="0 0 24 24"><path d="M8 3h8m-6 0v6l-5 9a2 2 0 0 0 2 3h10a2 2 0 0 0 2-3l-5-9V3"/><circle cx="10" cy="16" r="1"/><circle cx="14" cy="13" r="1"/><circle cx="15" cy="18" r="1"/></symbol>
  <symbol id="icon-credit-card" viewBox="0 0 24 24"><rect x="2" y="5" width="20" height="14" rx="2"/><path d="M2 9h20M6 15h5"/></symbol>
  <symbol id="icon-debt-strategy" viewBox="0 0 24 24"><path d="M4 5h8l-2-2m2 2-2 2M20 19h-8l2 2m-2-2 2-2"/><path d="M7 10h10M7 14h10"/></symbol>
  <symbol id="icon-refinance" viewBox="0 0 24 24"><path d="M4 10 12 3l8 7v10H4V10Z"/><path d="M8 14h8m-2-2 2 2-2 2"/></symbol>
  <symbol id="icon-car-compare" viewBox="0 0 24 24"><path d="m4 14 2-5h12l2 5v5H4v-5Z"/><circle cx="7" cy="19" r="2"/><circle cx="17" cy="19" r="2"/><path d="M7 14h10M9 5h6m-2-2 2 2-2 2"/></symbol>
  <symbol id="icon-rate-convert" viewBox="0 0 24 24"><circle cx="7" cy="7" r="2"/><circle cx="17" cy="17" r="2"/><path d="M6 18 18 6M3 12h6m-2-2 2 2-2 2m14-2h-6m2-2-2 2 2 2"/></symbol>
  <symbol id="icon-roi" viewBox="0 0 24 24"><path d="M3 19h18M5 16l5-5 3 3 6-8"/><path d="M15 6h4v4"/></symbol>
  <symbol id="icon-dca" viewBox="0 0 24 24"><path d="M4 6h16M4 12h16M4 18h16"/><circle cx="7" cy="6" r="2"/><circle cx="12" cy="12" r="2"/><circle cx="17" cy="18" r="2"/></symbol>
  <symbol id="icon-retirement" viewBox="0 0 24 24"><path d="M4 21h16M6 21v-9h12v9M9 12V8h6v4"/><path d="M12 2v3m-3-1 3 1 3-1"/></symbol>
  <symbol id="icon-inflation" viewBox="0 0 24 24"><circle cx="12" cy="12" r="9"/><path d="M8 15h6a2 2 0 0 0 0-4h-4a2 2 0 0 1 0-4h6M12 4v16"/><path d="m18 6 3-3m0 0v4m0-4h-4"/></symbol>
  <symbol id="icon-body-fat" viewBox="0 0 24 24"><path d="M9 3c-1 3-3 4-3 8v10m9-18c1 3 3 4 3 8v10M9 8h6m-7 7h8"/><path d="M12 8v13"/></symbol>
  <symbol id="icon-waist-ratio" viewBox="0 0 24 24"><path d="M7 3c2 4 2 7 0 10-1 2 0 5 2 8m8-18c-2 4-2 7 0 10 1 2 0 5-2 8M5 12h14"/><path d="m7 10-2 2 2 2m10-4 2 2-2 2"/></symbol>
  <symbol id="icon-macros" viewBox="0 0 24 24"><circle cx="12" cy="12" r="9"/><path d="M12 3v9l7 5M12 12 5 18"/></symbol>
  <symbol id="icon-hydration" viewBox="0 0 24 24"><path d="M12 2C8 7 5 10 5 15a7 7 0 0 0 14 0c0-5-3-8-7-13Z"/><path d="M9 16c1 2 3 3 5 2"/></symbol>
  <symbol id="icon-one-rep-max" viewBox="0 0 24 24"><path d="M3 9v6m3-8v10m12-10v10m3-8v6M6 12h12"/><path d="M9 9h6v6H9z"/></symbol>
  <symbol id="icon-met-calories" viewBox="0 0 24 24"><path d="M12 22c4 0 7-3 7-7 0-4-3-7-2-12-4 2-7 6-6 10-2-1-3-3-3-4-2 2-3 4-3 7 0 3 3 6 7 6Z"/><path d="M9 18h6"/></symbol>
  <symbol id="icon-vo2-max" viewBox="0 0 24 24"><path d="M3 12h4l2-5 4 10 2-5h6"/><path d="M5 4h4m-2-2v4M16 19h5"/></symbol>
  <symbol id="icon-splits" viewBox="0 0 24 24"><path d="M4 4v16M4 7h6m-6 5h10m-10 5h16"/><circle cx="10" cy="7" r="1"/><circle cx="14" cy="12" r="1"/><circle cx="20" cy="17" r="1"/></symbol>
  <symbol id="icon-sleep-cycle" viewBox="0 0 24 24"><path d="M18 15a7 7 0 0 1-9-9 7 7 0 1 0 9 9Z"/><path d="M16 4h4l-4 4h4"/></symbol>
</svg>
