<svg xmlns="http://www.w3.org/2000/svg">
  <symbol id="icon-menu" viewBox="0 0 24 24"><path d="M4 7h16M4 12h16M4 17h16"/></symbol>
  <symbol id="icon-more" viewBox="0 0 24 24"><circle cx="12" cy="5" r="1.4" fill="currentColor" stroke="none"/><circle cx="12" cy="12" r="1.4" fill="currentColor" stroke="none"/><circle cx="12" cy="19" r="1.4" fill="currentColor" stroke="none"/></symbol>
  <symbol id="icon-tools" viewBox="0 0 24 24"><path d="M14.7 6.3a4 4 0 0 0-5-5L12 3.6 9.6 6 7.3 3.7a4 4 0 0 0 5 5l7.4 7.4a2.1 2.1 0 0 1-3 3l-7.4-7.4"/><path d="m5 13-3.3 3.3a2.1 2.1 0 0 0 3 3L8 16"/></symbol>
  <symbol id="icon-settings" viewBox="0 0 24 24"><circle cx="12" cy="12" r="3"/><path d="M19.4 15a1.7 1.7 0 0 0 .3 1.9l.1.1-2.8 2.8-.1-.1a1.7 1.7 0 0 0-1.9-.3 1.7 1.7 0 0 0-1 1.6v.2h-4V21a1.7 1.7 0 0 0-1-1.6 1.7 1.7 0 0 0-1.9.3l-.1.1L4.2 17l.1-.1a1.7 1.7 0 0 0 .3-1.9A1.7 1.7 0 0 0 3 14H2.8v-4H3a1.7 1.7 0 0 0 1.6-1 1.7 1.7 0 0 0-.3-1.9L4.2 7 7 4.2l.1.1A1.7 1.7 0 0 0 9 4.6 1.7 1.7 0 0 0 10 3V2.8h4V3a1.7 1.7 0 0 0 1 1.6 1.7 1.7 0 0 0 1.9-.3l.1-.1L19.8 7l-.1.1a1.7 1.7 0 0 0-.3 1.9 1.7 1.7 0 0 0 1.6 1h.2v4H21a1.7 1.7 0 0 0-1.6 1Z"/></symbol>
  <symbol id="icon-history" viewBox="0 0 24 24"><path d="M3 12a9 9 0 1 0 3-6.7L3 8"/><path d="M3 3v5h5m4-2v6l4 2"/></symbol>
  <symbol id="icon-search" viewBox="0 0 24 24"><circle cx="11" cy="11" r="7"/><path d="m20 20-4-4"/></symbol>
  <symbol id="icon-close" viewBox="0 0 24 24"><path d="m6 6 12 12M18 6 6 18"/></symbol>
  <symbol id="icon-backspace" viewBox="0 0 24 24"><path d="M21 5H9l-6 7 6 7h12V5Z"/><path d="m11 9 6 6m0-6-6 6"/></symbol>
  <symbol id="icon-copy" viewBox="0 0 24 24"><rect x="8" y="8" width="11" height="11" rx="2"/><path d="M16 8V5a2 2 0 0 0-2-2H5a2 2 0 0 0-2 2v9a2 2 0 0 0 2 2h3"/></symbol>
  <symbol id="icon-swap" viewBox="0 0 24 24"><path d="M7 7h13l-3-3m3 3-3 3M17 17H4l3 3m-3-3 3-3"/></symbol>
  <symbol id="icon-sun" viewBox="0 0 24 24"><circle cx="12" cy="12" r="4"/><path d="M12 2v2m0 16v2M4.9 4.9l1.4 1.4m11.4 11.4 1.4 1.4M2 12h2m16 0h2M4.9 19.1l1.4-1.4M17.7 6.3l1.4-1.4"/></symbol>
  <symbol id="icon-moon" viewBox="0 0 24 24"><path d="M20.7 15.2A8.5 8.5 0 0 1 8.8 3.3a8.5 8.5 0 1 0 11.9 11.9Z"/></symbol>
  <symbol id="icon-calculator" viewBox="0 0 24 24"><rect x="4" y="2" width="16" height="20" rx="3"/><path d="M8 6h8M8 11h.01M12 11h.01M16 11h.01M8 15h.01M12 15h.01M16 15h.01M8 19h.01M12 19h4"/></symbol>
  <symbol id="icon-ruler" viewBox="0 0 24 24"><path d="m4 17 13-13 3 3L7 20l-3-3Z"/><path d="m12 9 3 3m-6 0 2 2m-5 1 2 2"/></symbol>
  <symbol id="icon-wallet" viewBox="0 0 24 24"><path d="M4 6h14a2 2 0 0 1 2 2v10a2 2 0 0 1-2 2H4a2 2 0 0 1-2-2V6a3 3 0 0 1 3-3h12v3"/><path d="M15 11h6v4h-6a2 2 0 0 1 0-4Z"/></symbol>
  <symbol id="icon-heart" viewBox="0 0 24 24"><path d="M20.8 4.6a5.5 5.5 0 0 0-7.8 0L12 5.7l-1.1-1.1a5.5 5.5 0 0 0-7.8 7.8L12 21l8.8-8.6a5.5 5.5 0 0 0 0-7.8Z"/></symbol>
  <symbol id="icon-flask" viewBox="0 0 24 24"><path d="M9 3h6m-5 0v6l-5 9a2 2 0 0 0 1.8 3h10.4a2 2 0 0 0 1.8-3l-5-9V3"/><path d="M7.5 15h9"/></symbol>
  <symbol id="icon-geometry" viewBox="0 0 24 24"><path d="M12 3 2.5 20h19L12 3Z"/><circle cx="12" cy="14" r="3"/></symbol>
  <symbol id="icon-clock" viewBox="0 0 24 24"><circle cx="12" cy="12" r="9"/><path d="M12 7v5l3 2"/></symbol>
  <symbol id="icon-code" viewBox="0 0 24 24"><path d="m8 9-4 3 4 3m8-6 4 3-4 3m-2-9-4 12"/></symbol>
  <symbol id="icon-home" viewBox="0 0 24 24"><path d="m3 11 9-8 9 8v9a1 1 0 0 1-1 1h-5v-6H9v6H4a1 1 0 0 1-1-1v-9Z"/></symbol>
  <symbol id="icon-keyboard" viewBox="0 0 24 24"><rect x="2" y="5" width="20" height="14" rx="2"/><path d="M6 9h.01M10 9h.01M14 9h.01M18 9h.01M6 13h.01M10 13h.01M14 13h.01M18 13h.01M7 16h10"/></symbol>
  <symbol id="icon-info" viewBox="0 0 24 24"><circle cx="12" cy="12" r="9"/><path d="M12 11v6m0-10h.01"/></symbol>
  <symbol id="icon-chevron" viewBox="0 0 24 24"><path d="m9 18 6-6-6-6"/></symbol>
  <symbol id="icon-sparkles" viewBox="0 0 24 24"><path d="m12 3 1.3 4.2L17.5 8l-4.2 1.3L12 13.5l-1.3-4.2L6.5 8l4.2-.8L12 3Zm6 10 .8 2.2L21 16l-2.2.8L18 19l-.8-2.2L15 16l2.2-.8L18 13ZM5 14l1 3 3 1-3 1-1 3-1-3-3-1 3-1 1-3Z"/></symbol>
  <symbol id="icon-trash" viewBox="0 0 24 24"><path d="M4 7h16m-10-3h4l1 3H9l1-3Zm-3 3 1 14h8l1-14M10 11v6m4-6v6"/></symbol>
  <symbol id="icon-check" viewBox="0 0 24 24"><path d="m5 12 4 4L19 6"/></symbol>
  <symbol id="icon-arrow-left" viewBox="0 0 24 24"><path d="m15 18-6-6 6-6"/></symbol>
  <symbol id="icon-bookmark" viewBox="0 0 24 24"><path d="M6 3h12v18l-6-4-6 4V3Z"/></symbol>
</svg>
